<svg xmlns="http://www.w3.org/2000/svg" viewBox="0 0 236.71 65">
    <defs>
        <path id="rectangle" d="M 15 0 l 15 15 l -15 15 l -15 -15 z" />
    </defs>
    
    <g id="logo">
        <use href="#rectangle" transform="translate(17.5 0)" />
        <use href="#rectangle" transform="translate(0 17.5)" />
        <use href="#rectangle" transform="translate(35 17.5)" />
        <use href="#rectangle" transform="translate(17.5 35)" />

        <g id="text" transform="translate(85 9.87)">
            <g id="svgGroup" stroke-linecap="round" fill-rule="nonzero" font-size="9pt" stroke="#000" stroke-width="0.25mm" fill="#000" style="stroke:#000;stroke-width:0.25mm;fill:#000">
                <path transform="translate(0 0)" d="M 3.161 36.506 L 0 36.506 L 0 9.233 L 3.072 9.233 L 3.072 13.424 L 3.356 13.424 A 6.727 6.727 0 0 1 6.081 10.094 A 7.647 7.647 0 0 1 8.919 9.022 A 10.266 10.266 0 0 1 10.671 8.878 A 9.888 9.888 0 0 1 12.705 9.076 Q 14.035 9.355 15.066 10.03 A 6.115 6.115 0 0 1 15.314 10.201 A 7.731 7.731 0 0 1 17.718 13.101 A 9.603 9.603 0 0 1 18.04 13.832 L 18.271 13.832 Q 19.194 11.559 21.28 10.219 A 8.281 8.281 0 0 1 24.28 9.059 A 11.341 11.341 0 0 1 26.349 8.878 Q 30.149 8.878 32.351 11.266 A 7.644 7.644 0 0 1 33.985 14.148 Q 34.553 15.909 34.553 18.235 L 34.553 36.506 L 31.392 36.506 L 31.392 18.235 Q 31.392 16.034 30.626 14.582 A 4.779 4.779 0 0 0 29.741 13.388 A 5.568 5.568 0 0 0 26.675 11.873 A 7.848 7.848 0 0 0 25.391 11.772 A 8.136 8.136 0 0 0 23.417 11.998 A 5.431 5.431 0 0 0 20.579 13.69 A 6.688 6.688 0 0 0 18.991 17.188 A 9.128 9.128 0 0 0 18.892 18.555 L 18.892 36.506 L 15.661 36.506 L 15.661 17.951 Q 15.661 15.181 14.116 13.477 A 5.031 5.031 0 0 0 11.396 11.939 A 7.554 7.554 0 0 0 9.766 11.772 A 6.571 6.571 0 0 0 7.46 12.17 A 6.106 6.106 0 0 0 6.383 12.696 A 6.464 6.464 0 0 0 4.035 15.236 A 7.622 7.622 0 0 0 4.022 15.261 A 7.489 7.489 0 0 0 3.245 17.75 A 9.52 9.52 0 0 0 3.161 19.034 L 3.161 36.506 Z" id="0" />
                <path transform="translate(-2.5 0)" d="M 64.986 22.248 L 64.986 23.811 L 43.679 23.811 L 43.679 21.023 L 61.754 21.023 A 11.271 11.271 0 0 0 61.42 18.233 A 9.584 9.584 0 0 0 60.698 16.291 A 8.485 8.485 0 0 0 58.415 13.431 A 8.301 8.301 0 0 0 57.768 12.962 A 7.527 7.527 0 0 0 54.196 11.767 A 9.295 9.295 0 0 0 53.445 11.737 A 8.206 8.206 0 0 0 50.655 12.2 A 7.441 7.441 0 0 0 48.881 13.122 Q 46.911 14.507 45.801 16.779 A 11.262 11.262 0 0 0 44.68 21.395 A 13.107 13.107 0 0 0 44.673 21.751 L 44.673 23.42 A 15.816 15.816 0 0 0 44.913 26.24 A 11.663 11.663 0 0 0 45.801 29.093 A 9.209 9.209 0 0 0 47.475 31.586 A 8.275 8.275 0 0 0 49.006 32.848 A 8.372 8.372 0 0 0 52.386 34.075 A 10.885 10.885 0 0 0 53.924 34.18 A 10.512 10.512 0 0 0 55.633 34.048 A 7.718 7.718 0 0 0 57.324 33.576 A 7.777 7.777 0 0 0 58.975 32.659 A 6.734 6.734 0 0 0 59.792 31.952 A 7.347 7.347 0 0 0 61.022 30.305 A 6.705 6.705 0 0 0 61.31 29.706 L 64.311 30.682 Q 63.69 32.404 62.278 33.86 A 9.917 9.917 0 0 1 59.831 35.688 A 12.132 12.132 0 0 1 58.762 36.195 A 11.149 11.149 0 0 1 56.061 36.926 A 14.831 14.831 0 0 1 53.924 37.074 A 13.711 13.711 0 0 1 50.519 36.669 A 10.9 10.9 0 0 1 47.319 35.29 A 11.711 11.711 0 0 1 43.134 30.581 A 14.006 14.006 0 0 1 43.013 30.336 A 15.25 15.25 0 0 1 41.709 25.996 A 19.883 19.883 0 0 1 41.495 23.029 A 19.144 19.144 0 0 1 41.875 19.139 A 15.19 15.19 0 0 1 43.013 15.705 A 13.016 13.016 0 0 1 45.229 12.388 A 11.533 11.533 0 0 1 47.221 10.68 A 10.628 10.628 0 0 1 52.574 8.889 A 13.139 13.139 0 0 1 53.445 8.86 A 11.617 11.617 0 0 1 57.724 9.668 A 10.622 10.622 0 0 1 61.374 12.085 A 12.117 12.117 0 0 1 61.426 12.136 A 11.033 11.033 0 0 1 63.324 14.752 A 13.928 13.928 0 0 1 64.027 16.309 A 13.877 13.877 0 0 1 64.746 19.05 Q 64.986 20.535 64.986 22.248 Z" id="1" />
                <path transform="translate(-5 0)" d="M 75.089 36.506 L 71.928 36.506 L 71.928 9.233 L 75 9.233 L 75 13.424 L 75.231 13.424 A 6.751 6.751 0 0 1 77.703 10.345 A 8.434 8.434 0 0 1 78.081 10.094 A 8.408 8.408 0 0 1 82.21 8.836 A 10.146 10.146 0 0 1 82.688 8.825 A 20.277 20.277 0 0 1 83.101 8.829 A 27.577 27.577 0 0 1 83.558 8.843 A 68.474 68.474 0 0 1 83.788 8.852 Q 84.107 8.864 84.342 8.877 A 23.575 23.575 0 0 1 84.357 8.878 L 84.357 12.092 Q 84.144 12.056 83.612 11.985 A 8.038 8.038 0 0 0 82.929 11.925 A 9.998 9.998 0 0 0 82.457 11.914 A 8.654 8.654 0 0 0 80.326 12.167 A 7.195 7.195 0 0 0 78.667 12.811 A 6.761 6.761 0 0 0 76.048 15.288 A 6.642 6.642 0 0 0 75.112 18.271 A 8.134 8.134 0 0 0 75.089 18.892 L 75.089 36.506 Z" id="2" />
                <path transform="translate(-7.5 0)" d="M 92.969 36.506 L 89.79 36.506 L 89.79 9.233 L 92.969 9.233 L 92.969 36.506 Z M 89.737 3.88 A 2.234 2.234 0 0 1 89.189 3.076 A 2.199 2.199 0 0 1 89.045 2.273 A 2.141 2.141 0 0 1 89.695 0.708 A 2.681 2.681 0 0 1 89.737 0.666 A 2.321 2.321 0 0 1 91.406 0 A 2.321 2.321 0 0 1 93.075 0.666 A 2.234 2.234 0 0 1 93.623 1.47 A 2.199 2.199 0 0 1 93.768 2.273 A 2.141 2.141 0 0 1 93.118 3.838 A 2.681 2.681 0 0 1 93.075 3.88 A 2.321 2.321 0 0 1 91.406 4.546 A 2.321 2.321 0 0 1 89.737 3.88 Z" id="3" />
                <path transform="translate(-10 0)" d="M 119.549 14.436 L 119.833 14.436 L 119.833 0.142 L 123.011 0.142 L 123.011 36.506 L 119.922 36.506 L 119.922 31.446 L 119.549 31.446 A 10.799 10.799 0 0 1 118.834 32.784 A 14.498 14.498 0 0 1 117.987 33.994 Q 116.974 35.299 115.314 36.186 Q 113.868 36.96 111.795 37.059 A 13.056 13.056 0 0 1 111.168 37.074 A 10.707 10.707 0 0 1 107.747 36.543 A 9.466 9.466 0 0 1 105.291 35.299 A 11.142 11.142 0 0 1 102.133 31.846 A 14.028 14.028 0 0 1 101.358 30.345 A 15.936 15.936 0 0 1 100.217 26.438 A 21.618 21.618 0 0 1 99.947 22.941 A 21.227 21.227 0 0 1 100.257 19.224 A 15.732 15.732 0 0 1 101.358 15.563 A 12.752 12.752 0 0 1 103.168 12.601 A 10.705 10.705 0 0 1 105.309 10.627 A 9.888 9.888 0 0 1 110.391 8.888 A 12.319 12.319 0 0 1 111.222 8.86 Q 113.707 8.86 115.359 9.739 Q 117.01 10.618 118.004 11.914 A 14.868 14.868 0 0 1 118.888 13.193 A 11.063 11.063 0 0 1 119.549 14.436 Z M 111.541 34.18 A 8.06 8.06 0 0 0 113.85 33.862 A 6.653 6.653 0 0 0 116.051 32.733 A 8.424 8.424 0 0 0 118.199 30.223 A 10.93 10.93 0 0 0 118.901 28.738 A 14.257 14.257 0 0 0 119.698 25.633 A 19.128 19.128 0 0 0 119.886 22.887 A 18.666 18.666 0 0 0 119.672 19.99 A 13.884 13.884 0 0 0 118.91 17.108 A 10.047 10.047 0 0 0 117.733 14.897 A 8.085 8.085 0 0 0 116.069 13.166 Q 114.205 11.737 111.541 11.737 A 8.348 8.348 0 0 0 109.277 12.031 A 6.619 6.619 0 0 0 106.934 13.219 A 8.714 8.714 0 0 0 104.633 16.028 A 11.001 11.001 0 0 0 104.093 17.223 A 14.419 14.419 0 0 0 103.261 20.618 A 18.337 18.337 0 0 0 103.125 22.887 A 17.851 17.851 0 0 0 103.401 26.089 A 14.234 14.234 0 0 0 104.102 28.623 A 10.463 10.463 0 0 0 105.302 30.915 A 8.517 8.517 0 0 0 106.951 32.68 A 6.794 6.794 0 0 0 110.433 34.113 A 8.958 8.958 0 0 0 111.541 34.18 Z" id="4" />
                <path transform="translate(-12.5 0)" d="M 135.227 36.506 L 132.049 36.506 L 132.049 9.233 L 135.227 9.233 L 135.227 36.506 Z M 131.996 3.88 A 2.234 2.234 0 0 1 131.448 3.076 A 2.199 2.199 0 0 1 131.303 2.273 A 2.141 2.141 0 0 1 131.953 0.708 A 2.681 2.681 0 0 1 131.996 0.666 A 2.321 2.321 0 0 1 133.665 0 A 2.321 2.321 0 0 1 135.334 0.666 A 2.234 2.234 0 0 1 135.882 1.47 A 2.199 2.199 0 0 1 136.026 2.273 A 2.141 2.141 0 0 1 135.376 3.838 A 2.681 2.681 0 0 1 135.334 3.88 A 2.321 2.321 0 0 1 133.665 4.546 A 2.321 2.321 0 0 1 131.996 3.88 Z" id="5" />
                <path transform="translate(-15 0)" d="M 150.494 36.507 A 10.489 10.489 0 0 1 147.967 35.281 A 11.88 11.88 0 0 1 144.132 31.089 A 14.354 14.354 0 0 1 143.732 30.318 A 15.186 15.186 0 0 1 142.42 25.972 A 19.899 19.899 0 0 1 142.205 22.994 A 19.513 19.513 0 0 1 142.564 19.17 A 14.973 14.973 0 0 1 143.732 15.616 A 12.77 12.77 0 0 1 145.962 12.326 A 11.353 11.353 0 0 1 147.967 10.645 A 10.861 10.861 0 0 1 153.331 8.889 A 13.408 13.408 0 0 1 154.208 8.86 A 11.798 11.798 0 0 1 157.919 9.428 A 10.429 10.429 0 0 1 160.44 10.654 A 11.916 11.916 0 0 1 164.22 14.759 A 14.475 14.475 0 0 1 164.675 15.625 A 15.184 15.184 0 0 1 165.99 19.964 A 20.046 20.046 0 0 1 166.211 22.994 A 19.222 19.222 0 0 1 165.853 26.788 A 14.838 14.838 0 0 1 164.684 30.318 A 12.772 12.772 0 0 1 162.384 33.67 A 11.494 11.494 0 0 1 160.449 35.281 A 10.826 10.826 0 0 1 155.079 37.046 A 13.346 13.346 0 0 1 154.208 37.074 A 11.824 11.824 0 0 1 150.494 36.507 Z M 154.208 34.18 A 8.774 8.774 0 0 0 156.604 33.867 A 7.028 7.028 0 0 0 159.02 32.653 A 9.258 9.258 0 0 0 161.66 29.374 A 11.325 11.325 0 0 0 162.012 28.587 A 14.24 14.24 0 0 0 162.969 24.489 A 17.193 17.193 0 0 0 163.033 22.994 A 15.952 15.952 0 0 0 162.634 19.371 A 13.754 13.754 0 0 0 162.012 17.383 Q 160.991 14.826 159.02 13.282 A 7.211 7.211 0 0 0 155.409 11.811 A 9.495 9.495 0 0 0 154.208 11.737 A 8.577 8.577 0 0 0 151.748 12.076 A 7.046 7.046 0 0 0 149.405 13.282 Q 147.425 14.826 146.404 17.383 A 14.438 14.438 0 0 0 145.44 21.59 A 17.292 17.292 0 0 0 145.384 22.994 A 15.91 15.91 0 0 0 145.763 26.525 A 13.573 13.573 0 0 0 146.404 28.587 A 10.175 10.175 0 0 0 147.902 31.185 A 8.915 8.915 0 0 0 149.396 32.653 Q 151.367 34.18 154.208 34.18 Z" id="6" />
            </g>
        </g>
    </g>
</svg>